<svg width="30" height="30" viewBox="0 0 30 30" fill="none" xmlns="http://www.w3.org/2000/svg">
<circle cx="15" cy="15" r="14.5" fill="#E3D0FF" stroke="white"/>
<path d="M23.3333 11.0327C23.334 10.923 23.313 10.8143 23.2715 10.7128C23.23 10.6112 23.1689 10.5189 23.0917 10.441L19.5583 6.9077C19.4805 6.83046 19.3881 6.76936 19.2866 6.72789C19.1851 6.68642 19.0763 6.6654 18.9667 6.66603C18.857 6.6654 18.7483 6.68642 18.6467 6.72789C18.5452 6.76936 18.4529 6.83046 18.375 6.9077L16.0167 9.26603L6.90834 18.3744C6.8311 18.4522 6.77 18.5446 6.72853 18.6461C6.68706 18.7476 6.66604 18.8564 6.66667 18.966V22.4994C6.66667 22.7204 6.75447 22.9323 6.91075 23.0886C7.06703 23.2449 7.27899 23.3327 7.5 23.3327H11.0333C11.1499 23.339 11.2666 23.3208 11.3757 23.2792C11.4848 23.2375 11.5839 23.1734 11.6667 23.091L20.725 13.9827L23.0917 11.666C23.1677 11.5853 23.2297 11.4923 23.275 11.391C23.283 11.3246 23.283 11.2575 23.275 11.191C23.2789 11.1522 23.2789 11.1132 23.275 11.0744L23.3333 11.0327ZM10.6917 21.666H8.33334V19.3077L16.6083 11.0327L18.9667 13.391L10.6917 21.666ZM20.1417 12.216L17.7833 9.8577L18.9667 8.6827L21.3167 11.0327L20.1417 12.216Z" fill="white"/>
</svg>
