<svg width="25" height="25" viewBox="0 0 25 25" fill="none" xmlns="http://www.w3.org/2000/svg">
<path d="M13.8437 14.364L13.5416 14.6765V11.9785C13.5416 11.7023 13.4318 11.4373 13.2365 11.242C13.0411 11.0466 12.7762 10.9369 12.4999 10.9369C12.2237 10.9369 11.9587 11.0466 11.7633 11.242C11.568 11.4373 11.4583 11.7023 11.4583 11.9785V14.6765L11.1562 14.364C10.96 14.1678 10.694 14.0576 10.4166 14.0576C10.1392 14.0576 9.87315 14.1678 9.677 14.364C9.48085 14.5601 9.37066 14.8261 9.37066 15.1035C9.37066 15.3809 9.48085 15.647 9.677 15.8431L11.7603 17.9265C11.8594 18.0213 11.9762 18.0956 12.1041 18.1452C12.2288 18.2003 12.3636 18.2288 12.4999 18.2288C12.6362 18.2288 12.7711 18.2003 12.8958 18.1452C13.0236 18.0956 13.1404 18.0213 13.2395 17.9265L15.3228 15.8431C15.519 15.647 15.6292 15.3809 15.6292 15.1035C15.6292 14.8261 15.519 14.5601 15.3228 14.364C15.1267 14.1678 14.8606 14.0576 14.5833 14.0576C14.3059 14.0576 14.0398 14.1678 13.8437 14.364ZM19.7916 5.72854H13.2499L12.9166 4.68687C12.7005 4.07565 12.2997 3.54677 11.7696 3.1735C11.2396 2.80022 10.6065 2.60104 9.95825 2.60354H5.20825C4.37945 2.60354 3.58459 2.93278 2.99854 3.51883C2.41249 4.10488 2.08325 4.89974 2.08325 5.72854V19.2702C2.08325 20.099 2.41249 20.8939 2.99854 21.4799C3.58459 22.066 4.37945 22.3952 5.20825 22.3952H19.7916C20.6204 22.3952 21.4152 22.066 22.0013 21.4799C22.5873 20.8939 22.9166 20.099 22.9166 19.2702V8.85354C22.9166 8.02474 22.5873 7.22988 22.0013 6.64383C21.4152 6.05778 20.6204 5.72854 19.7916 5.72854ZM20.8333 19.2702C20.8333 19.5465 20.7235 19.8114 20.5282 20.0068C20.3328 20.2021 20.0679 20.3119 19.7916 20.3119H5.20825C4.93198 20.3119 4.66703 20.2021 4.47168 20.0068C4.27633 19.8114 4.16659 19.5465 4.16659 19.2702V5.72854C4.16659 5.45227 4.27633 5.18732 4.47168 4.99197C4.66703 4.79662 4.93198 4.68687 5.20825 4.68687H9.95825C10.1766 4.68631 10.3897 4.75439 10.5672 4.8815C10.7448 5.00861 10.878 5.18831 10.9478 5.39521L11.5103 7.10354C11.5802 7.31044 11.7134 7.49014 11.8909 7.61725C12.0685 7.74435 12.2815 7.81244 12.4999 7.81187H19.7916C20.0679 7.81187 20.3328 7.92162 20.5282 8.11697C20.7235 8.31232 20.8333 8.57727 20.8333 8.85354V19.2702Z" fill="#7A7A7A"/>
</svg>
