<svg width="31" height="30" viewBox="0 0 31 30" fill="none" xmlns="http://www.w3.org/2000/svg">
<path d="M25.0344 13.75H5.01351C4.26273 13.75 3.76221 14.25 3.76221 15C3.76221 15.75 4.26273 16.25 5.01351 16.25H25.0344C25.7851 16.25 26.2857 15.75 26.2857 15C26.2857 14.25 25.7851 13.75 25.0344 13.75ZM5.01351 10H25.0344C25.7851 10 26.2857 9.5 26.2857 8.75C26.2857 8 25.7851 7.5 25.0344 7.5H5.01351C4.26273 7.5 3.76221 8 3.76221 8.75C3.76221 9.5 4.26273 10 5.01351 10ZM25.0344 20H5.01351C4.26273 20 3.76221 20.5 3.76221 21.25C3.76221 22 4.26273 22.5 5.01351 22.5H25.0344C25.7851 22.5 26.2857 22 26.2857 21.25C26.2857 20.5 25.7851 20 25.0344 20Z" fill="#5500CC"/>
</svg>
